HIERARCHY
ROOT Hips
{
	OFFSET 0.00 0.00 0.00
	CHANNELS 6 Xposition Yposition Zposition Xrotation Yrotation Zrotation
	JOINT Spine
	{
		OFFSET 0.00000 7.06766 0.00000
		CHANNELS 3 Xrotation Yrotation Zrotation
		JOINT Head
		{
			OFFSET 0.00000 15.03989 0.00000
			CHANNELS 3 Xrotation Yrotation Zrotation
			End Site
			{
				OFFSET 0.00000 4.52755 0.00000
			}
		}
		JOINT LeftShoulder
		{
			OFFSET 0.00000 10.53037 0.00000
			CHANNELS 3 Xrotation Yrotation Zrotation
			JOINT LeftArm
			{
				OFFSET 7.02886 0.00000 0.00000
				CHANNELS 3 Xrotation Yrotation Zrotation
				JOINT LeftForeArm
				{
					OFFSET 10.79770 0.00000 0.00000
					CHANNELS 3 Yrotation Zrotation Xrotation
					JOINT LeftHand
					{
						OFFSET 7.90744 0.00000 0.00000
						CHANNELS 3 Xrotation Yrotation Zrotation
						JOINT LeftHandThumb1
						{
							OFFSET 0.00000 0.00000 0.00000
							CHANNELS 3 Xrotation Zrotation Yrotation
							End Site
							{
								OFFSET 0.00000 0.00000 3.93700
							}
						}
						End Site
						{
							OFFSET 3.93700 0.00000 0.00000
						}
					}
				}
			}
		}
		JOINT RightShoulder
		{
			OFFSET 0.00000 10.53037 0.00000
			CHANNELS 3 Xrotation Yrotation Zrotation
			JOINT RightArm
			{
				OFFSET -7.02886 0.00000 0.00000
				CHANNELS 3 Xrotation Yrotation Zrotation
				JOINT RightForeArm
				{
					OFFSET -10.79770 0.00000 0.00000
					CHANNELS 3 Yrotation Zrotation Xrotation
					JOINT RightHand
					{
						OFFSET -7.90744 0.00000 0.00000
						CHANNELS 3 Xrotation Yrotation Zrotation
						JOINT RightHandThumb1
						{
							OFFSET 0.00000 0.00000 0.00000
							CHANNELS 3 Xrotation Zrotation Yrotation
							End Site
							{
								OFFSET 0.00000 0.00000 3.93700
							}
						}
						End Site
						{
							OFFSET -3.93700 0.00000 0.00000
						}
					}
				}
			}
		}
	}
	JOINT LeftUpLeg
	{
		OFFSET 4.01300 0.00000 0.00000
		CHANNELS 3 Xrotation Yrotation Zrotation
		JOINT LeftLeg
		{
			OFFSET 0.00000 -16.89976 0.00000
			CHANNELS 3 Xrotation Yrotation Zrotation
			JOINT LeftFoot
			{
				OFFSET 0.00000 -17.38918 0.00000
				CHANNELS 3 Xrotation Yrotation Zrotation
				JOINT LeftToeBase
				{
					OFFSET 0.00000 -1.27456 4.75673
					CHANNELS 3 Xrotation Yrotation Zrotation
					End Site
					{
						OFFSET 0.00000 0.00000 2.95275
					}
				}
			}
		}
	}
	JOINT RightUpLeg
	{
		OFFSET -4.01300 0.00000 0.00000
		CHANNELS 3 Xrotation Yrotation Zrotation
		JOINT RightLeg
		{
			OFFSET 0.00000 -16.89976 0.00000
			CHANNELS 3 Xrotation Yrotation Zrotation
			JOINT RightFoot
			{
				OFFSET 0.00000 -17.38918 0.00000
				CHANNELS 3 Xrotation Yrotation Zrotation
				JOINT RightToeBase
				{
					OFFSET 0.00000 -1.27456 4.75673
					CHANNELS 3 Xrotation Yrotation Zrotation
					End Site
					{
						OFFSET 0.00000 0.00000 2.95275
					}
				}
			}
		}
	}
}
MOTION
Frames: 19
Frame Time: 0.008333
 18.4112 35.3768 -21.7467 8.3979 -0.3662 -1.5713 -21.1036 -0.9940 -0.1613 7.5472 1.9778 1.8162 -33.0135 5.1932 16.5644 0.9105 -1.5518 -8.3450 2.2295 0.0000 9.8591 0.6298 5.9882 -6.0147 33.1476 -0.0000 26.2537 9.2753 -15.0013 -6.4048 -35.0213 2.3157 14.2635 7.2631 -0.0000 37.1258 0.9463 -7.8397 6.9047 32.8623 0.0000 -24.3270 1.3777 8.8852 1.7972 -6.5847 -0.0000 -0.0000 -20.3243 29.9684 6.1205 25.2317 -0.0000 0.0000 0.1444 -8.3467 -0.6042 -3.1088 -0.0000 -0.0000 -18.6889 -27.0948 1.5627 24.1847 0.0000 -0.0000
 18.4095 35.3771 -21.7482 8.3969 -0.3530 -1.5747 -21.0946 -0.9961 -0.1671 7.5435 1.9729 1.8050 -33.0259 5.1799 16.5712 0.9343 -1.5981 -8.3084 2.2602 0.0000 9.9143 0.6314 5.9535 -6.0654 33.1476 -0.0000 26.2537 9.2649 -14.9967 -6.4242 -35.0885 2.3039 14.2421 7.2450 -0.0000 37.1256 0.9334 -7.7807 6.8620 32.8623 0.0000 -24.3270 1.3732 8.8934 1.8027 -6.5844 -0.0000 0.0000 -20.3089 29.9446 6.1123 25.2329 0.0000 0.0000 0.1406 -8.3141 -0.5975 -3.0989 -0.0000 0.0000 -18.6979 -27.1507 1.5450 24.1492 0.0000 0.0000
 18.4070 35.3778 -21.7481 8.4009 -0.3154 -1.5828 -21.1044 -1.0195 -0.1828 7.5590 1.9718 1.8128 -33.0218 5.1469 16.5806 0.9173 -1.6074 -8.2782 2.2664 0.0000 9.9228 0.6328 6.0593 -5.9735 33.1476 -0.0000 26.2537 9.3206 -15.0206 -6.3952 -35.1322 2.3747 14.1958 7.1896 -0.0000 37.0521 0.9336 -7.8024 6.8449 32.8623 0.0000 -24.3270 1.3655 8.8662 1.8147 -6.5880 -0.0000 -0.0000 -20.2998 29.9476 6.0852 25.2559 0.0000 -0.0000 0.1490 -8.3224 -0.5828 -3.1102 -0.0000 0.0000 -18.6936 -27.1800 1.5259 24.1738 -0.0000 0.0000
 18.4057 35.3780 -21.7499 8.4081 -0.2841 -1.5800 -21.1065 -1.0328 -0.2079 7.5569 1.9641 1.8199 -33.0340 5.1105 16.5949 0.9081 -1.6139 -8.2533 2.2658 0.0000 9.8956 0.6288 6.0738 -5.9218 33.1476 -0.0000 26.2537 9.3064 -15.0233 -6.4034 -35.1169 2.3951 14.1660 7.1562 -0.0000 37.0151 0.9384 -7.8086 6.8741 32.8623 0.0000 -24.3270 1.3480 8.8479 1.8148 -6.5815 -0.0000 0.0000 -20.2871 29.9450 6.0749 25.2225 0.0000 -0.0000 0.1360 -8.3312 -0.5851 -3.0933 -0.0000 0.0000 -18.7181 -27.1819 1.4871 24.1789 0.0000 0.0000
 18.4044 35.3784 -21.7513 8.4090 -0.2604 -1.5813 -21.1039 -1.0439 -0.2224 7.5670 1.9599 1.8182 -33.0409 5.0848 16.6114 0.8935 -1.6212 -8.2402 2.2481 0.0000 9.8668 0.6143 5.9657 -5.8902 33.1476 -0.0000 26.2537 9.2537 -15.0066 -6.4449 -35.1243 2.3648 14.1558 7.1546 -0.0000 37.0585 0.9443 -7.8213 6.9060 32.8623 0.0000 -24.3270 1.3425 8.8352 1.8179 -6.5841 0.0000 -0.0000 -20.2832 29.9419 6.0558 25.2416 -0.0000 0.0000 0.1381 -8.3314 -0.5807 -3.0961 -0.0000 0.0000 -18.7236 -27.2087 1.4692 24.1939 -0.0000 -0.0000
 18.4016 35.3785 -21.7519 8.4049 -0.2316 -1.5886 -21.0938 -1.0645 -0.2323 7.5577 1.9715 1.8105 -33.0483 5.0720 16.6154 0.8622 -1.6502 -8.1961 2.2429 0.0000 9.9909 0.6224 5.9748 -5.9577 33.1476 -0.0000 26.2537 9.1778 -14.9767 -6.5016 -35.0651 2.3109 14.1417 7.2086 -0.0000 37.0248 0.9541 -7.8451 6.9561 32.8623 0.0000 -24.3270 1.3436 8.8254 1.8294 -6.5911 0.0000 -0.0000 -20.2698 29.9291 6.0430 25.2296 -0.0000 0.0000 0.1491 -8.3245 -0.5680 -3.1008 0.0000 -0.0000 -18.7243 -27.2457 1.4524 24.1508 -0.0000 -0.0000
 18.3995 35.3788 -21.7534 8.4144 -0.2029 -1.5914 -21.1045 -1.0834 -0.2571 7.5658 1.9627 1.8300 -33.0466 5.0343 16.6430 0.7613 -1.6401 -8.1880 2.2494 0.0000 9.9902 0.6117 5.9441 -5.8862 33.1476 -0.0000 26.2537 9.1312 -14.9467 -6.5249 -35.0317 2.2784 14.1043 7.2194 -0.0000 37.0535 0.9354 -7.7258 6.9249 32.8623 0.0000 -24.3270 1.3250 8.8153 1.8349 -6.5885 0.0000 0.0000 -20.2620 29.9165 6.0366 25.2441 0.0000 -0.0000 0.1375 -8.3439 -0.5641 -3.0891 -0.0000 -0.0000 -18.7249 -27.2451 1.4705 24.1693 -0.0000 0.0000
 18.3976 35.3791 -21.7543 8.4161 -0.1687 -1.5971 -21.1036 -1.1108 -0.2699 7.5672 1.9682 1.8211 -33.0251 5.0544 16.6506 0.7689 -1.7091 -8.1557 2.2396 0.0000 9.9805 0.6300 6.1488 -5.8619 33.1476 -0.0000 26.2537 9.1206 -14.9572 -6.5426 -35.0429 2.3134 14.0953 7.1853 -0.0000 37.0439 0.9417 -7.8016 6.9041 32.8623 0.0000 -24.3270 1.3156 8.7960 1.8442 -6.5875 0.0000 0.0000 -20.2477 29.9089 6.0231 25.2232 -0.0000 0.0000 0.1426 -8.3506 -0.5549 -3.0947 0.0000 -0.0000 -18.7284 -27.2677 1.4486 24.1559 0.0000 -0.0000
 18.3955 35.3797 -21.7556 8.4197 -0.1396 -1.5999 -21.1086 -1.1370 -0.2922 7.5814 1.9745 1.8304 -33.0004 5.0340 16.7050 0.7169 -1.7312 -8.1882 2.2709 0.0000 9.9144 0.6118 5.9898 -5.8425 33.1476 -0.0000 26.2537 9.1494 -14.9738 -6.5205 -35.0983 2.3824 14.0661 7.1380 -0.0000 37.0572 0.9409 -7.7777 6.9195 32.8623 0.0000 -24.3270 1.3076 8.7787 1.8495 -6.5918 0.0000 0.0000 -20.2376 29.9070 6.0257 25.2162 0.0000 -0.0000 0.1430 -8.3704 -0.5486 -3.0928 -0.0000 -0.0000 -18.7194 -27.2741 1.4725 24.1100 -0.0000 0.0000
 18.3941 35.3803 -21.7575 8.4248 -0.1174 -1.5994 -21.1166 -1.1467 -0.3095 7.5970 1.9683 1.8248 -33.0135 4.9797 16.7051 0.7376 -1.7241 -8.1531 2.2849 0.0000 9.8478 0.6090 5.8747 -5.9287 33.1476 -0.0000 26.2537 9.1748 -14.9609 -6.5197 -35.1455 2.3763 14.0276 7.1418 -0.0000 37.0775 0.9611 -7.8591 6.9945 32.8623 0.0000 -24.3270 1.2947 8.7728 1.8510 -6.5880 0.0000 0.0000 -20.2240 29.8986 5.9934 25.2340 0.0000 -0.0000 0.1468 -8.3573 -0.5482 -3.1072 0.0000 0.0000 -18.7157 -27.2971 1.4751 24.1161 -0.0000 0.0000
 18.3922 35.3806 -21.7580 8.4282 -0.0902 -1.6027 -21.1179 -1.1795 -0.3269 7.5914 1.9800 1.8239 -33.0160 4.9609 16.7405 0.6882 -1.7378 -8.1492 2.3082 0.0000 9.8590 0.6007 5.8582 -5.8650 33.1476 -0.0000 26.2537 9.1431 -14.9351 -6.5498 -35.1256 2.3578 14.0050 7.1596 -0.0000 37.0646 0.9351 -7.7040 6.9420 32.8623 0.0000 -24.3270 1.2848 8.7735 1.8558 -6.5877 0.0000 0.0000 -20.2115 29.8859 5.9790 25.2190 0.0000 -0.0000 0.1479 -8.3718 -0.5421 -3.1073 -0.0000 -0.0000 -18.7240 -27.3144 1.4764 24.1464 -0.0000 0.0000
 18.3906 35.3808 -21.7596 8.4347 -0.0687 -1.6048 -21.1238 -1.1932 -0.3411 7.6070 1.9695 1.8113 -33.0356 4.9161 16.7557 0.6524 -1.7422 -8.1265 2.3161 0.0000 9.8208 0.6077 5.8129 -5.9782 33.1476 -0.0000 26.2537 9.1076 -14.9162 -6.5779 -35.0922 2.3431 13.9759 7.1804 -0.0000 37.0971 0.9480 -7.7708 6.9772 32.8623 0.0000 -24.3270 1.2720 8.7657 1.8591 -6.5883 -0.0000 -0.0000 -20.2014 29.8803 5.9763 25.2159 0.0000 -0.0000 0.1429 -8.3845 -0.5392 -3.1053 0.0000 -0.0000 -18.7272 -27.3128 1.4714 24.1339 0.0000 0.0000
 18.3888 35.3814 -21.7610 8.4448 -0.0523 -1.6066 -21.1313 -1.2090 -0.3573 7.5892 1.9803 1.8252 -33.0433 4.8941 16.7734 0.6184 -1.7743 -8.0925 2.3461 0.0000 9.9602 0.6080 6.0195 -5.7788 33.1476 -0.0000 26.2537 9.1113 -14.9181 -6.5863 -35.0535 2.3907 13.9593 7.1363 -0.0000 37.0223 0.9373 -7.7676 6.9021 32.8623 0.0000 -24.3270 1.2540 8.7639 1.8641 -6.5849 0.0000 -0.0000 -20.1942 29.8739 5.9641 25.2229 -0.0000 0.0000 0.1355 -8.3739 -0.5327 -3.1105 -0.0000 0.0000 -18.7283 -27.3454 1.4512 24.1263 0.0000 0.0000
 18.3877 35.3817 -21.7634 8.4503 -0.0310 -1.6053 -21.1318 -1.2325 -0.3805 7.5798 1.9896 1.8393 -33.0608 4.8481 16.8020 0.5959 -1.7656 -8.0775 2.3654 0.0000 9.9276 0.6044 5.8671 -5.8918 33.1476 -0.0000 26.2537 9.0942 -14.8981 -6.6036 -35.0243 2.3992 13.9383 7.1261 -0.0000 36.9750 0.9395 -7.7512 6.9328 32.8623 0.0000 -24.3270 1.2388 8.7515 1.8646 -6.5783 0.0000 -0.0000 -20.1913 29.8643 5.9634 25.2514 0.0000 -0.0000 0.1270 -8.3827 -0.5337 -3.1046 -0.0000 0.0000 -18.7317 -27.3538 1.4508 24.1617 0.0000 0.0000
 18.3861 35.3825 -21.7649 8.4560 -0.0156 -1.6060 -21.1347 -1.2537 -0.3948 7.5799 1.9888 1.8344 -33.0839 4.8130 16.8173 0.6008 -1.7777 -8.0519 2.3781 0.0000 9.8939 0.5968 5.7190 -5.9677 33.1476 -0.0000 26.2537 9.0961 -14.8900 -6.6079 -35.0285 2.4182 13.9044 7.1441 -0.0000 36.9756 0.9427 -7.7025 6.9990 32.8623 0.0000 -24.3270 1.2238 8.7422 1.8685 -6.5707 0.0000 -0.0000 -20.1832 29.8703 5.9591 25.2192 0.0000 -0.0000 0.1254 -8.3791 -0.5325 -3.1084 0.0000 0.0000 -18.7256 -27.3551 1.4558 24.1236 -0.0000 0.0000
 18.3843 35.3830 -21.7670 8.4608 -0.0135 -1.6075 -21.1365 -1.2573 -0.4003 7.5743 2.0034 1.8227 -33.0878 4.7743 16.8161 0.8106 -1.8037 -8.0152 2.3654 0.0000 9.6211 0.5956 5.7546 -5.9195 33.1476 -0.0000 26.2537 9.0520 -14.8689 -6.6457 -35.0007 2.4088 13.8878 7.1467 -0.0000 36.9918 0.9503 -7.7464 7.0155 32.8623 0.0000 -24.3270 1.2156 8.7413 1.8725 -6.5735 0.0000 0.0000 -20.1702 29.8658 5.9472 25.1905 0.0000 -0.0000 0.1193 -8.3619 -0.5281 -3.1120 -0.0000 0.0000 -18.7158 -27.3740 1.4483 24.1219 -0.0000 0.0000
 18.3830 35.3834 -21.7680 8.4707 -0.0048 -1.6086 -21.1461 -1.2755 -0.4121 7.5682 2.0118 1.8266 -33.0549 4.7860 16.8561 0.6634 -1.8345 -8.0204 2.3654 0.0000 9.6657 0.5923 5.7058 -5.9361 33.1476 -0.0000 26.2537 9.1017 -14.8647 -6.6553 -35.1084 2.4216 13.8841 7.1187 -0.0000 37.0497 0.9391 -7.7417 6.9380 32.8623 0.0000 -24.3270 1.2019 8.7437 1.8757 -6.5743 0.0000 0.0000 -20.1650 29.8618 5.9344 25.2284 0.0000 -0.0000 0.1101 -8.3558 -0.5263 -3.1119 0.0000 -0.0000 -18.7141 -27.3825 1.4493 24.0924 0.0000 0.0000
 18.3817 35.3840 -21.7708 8.4845 0.0045 -1.6107 -21.1501 -1.2846 -0.4244 7.5400 2.0274 1.8378 -33.0166 4.7683 16.8678 0.5429 -1.8490 -7.9925 2.3796 0.0000 9.7884 0.5905 5.8366 -5.7869 33.1476 -0.0000 26.2537 9.0832 -14.8609 -6.6773 -35.1461 2.4099 13.8778 7.1296 -0.0000 37.0836 0.9387 -7.7214 6.9526 32.8623 0.0000 -24.3270 1.1751 8.7280 1.8817 -6.5604 -0.0000 -0.0000 -20.1617 29.8715 5.9319 25.2232 -0.0000 0.0000 0.0929 -8.3628 -0.5220 -3.1123 -0.0000 0.0000 -18.7135 -27.3874 1.4588 24.0962 -0.0000 0.0000
 18.3800 35.3845 -21.7717 8.4801 0.0055 -1.6155 -21.1353 -1.2889 -0.4295 7.5173 2.0106 1.8356 -33.1107 4.6531 16.8770 0.6749 -1.7852 -7.9567 2.3734 0.0000 9.7239 0.5847 5.8131 -5.7539 33.1476 -0.0000 26.2537 9.0248 -14.8372 -6.7069 -35.1388 2.3824 13.8531 7.1664 -0.0000 37.1362 0.9565 -7.7719 7.0381 32.8623 0.0000 -24.3270 1.1749 8.7337 1.8896 -6.5570 0.0000 0.0000 -20.1623 29.8647 5.9345 25.2308 0.0000 -0.0000 0.0982 -8.3600 -0.5136 -3.1129 0.0000 0.0000 -18.7100 -27.3962 1.4565 24.1102 -0.0000 0.0000
